<?xml version="1.0" standalone="no"?>
<!DOCTYPE svg PUBLIC "-//W3C//DTD SVG 1.1//EN" "http://www.w3.org/Graphics/SVG/1.1/DTD/svg11.dtd">
<svg xmlns="http://www.w3.org/2000/svg">
<metadata>Copyright (C) 2016 by original authors @ fontello.com</metadata>
<defs>
<font id="ss-social-circle" horiz-adv-x="1000" >
<font-face font-family="ss-social-circle" font-weight="400" font-stretch="normal" units-per-em="1000" ascent="850" descent="-150" />
<missing-glyph horiz-adv-x="1000" />
<glyph glyph-name="glyph" unicode="&#xe800;" d="m0 788h1000v-1001h-1000v1001z m787-125h-574l287-287z m-662-88v-574l287 287z m88-663h574l-287 288z m662 89v574l-287-287z" horiz-adv-x="1000" />
<glyph glyph-name="glyph-1" unicode="&#xe801;" d="m500 788q206 0 353-147t147-353q0-208-146-354t-354-147-354 147-146 354 146 353 354 147z m313-690v298l-313-233-312 233v-298q0-16 11-28t28-12h546q16 0 28 12t12 28z m-313 146l313 233q0 17-12 28t-28 12h-546q-16 0-28-12t-11-28z" horiz-adv-x="1000" />
<glyph glyph-name="glyph-2" unicode="&#xe802;" d="m500 788q206 0 353-147t147-353q0-208-146-354t-354-147-354 147-146 354 146 353 354 147z m-167-750q35 0 59 24t25 59-25 59-59 24-59-24-24-59 24-59 59-24z m188 0h104q0 155-110 265t-265 110v-105q112 0 192-79t79-191z m187 0h105q0 114-45 218t-120 180-179 119-219 45v-104q190 0 324-134t134-324z" horiz-adv-x="1000" />
<glyph glyph-name="glyph-3" unicode="&#xe803;" d="m500 788q206 0 353-147t147-353q0-208-146-354t-354-147-354 147-146 354 146 353 354 147z m42-418v90q0 29 10 43t41 14h68l6 118q-35 7-95 7-87 0-132-45t-44-113v-113h-83v-125h83v-313h146v313h117l8 124h-125z" horiz-adv-x="1000" />
<glyph glyph-name="glyph-4" unicode="&#xe804;" d="m500 788q207 0 354-147t146-353-146-354-354-147-354 147-146 354 146 353 354 147z m304-390q39 26 71 72-42-17-82-22 45 26 61 79-43-24-89-35-42 46-103 46-59 0-100-42t-41-101q0-17 3-32-179 9-294 149-18-35-18-72 0-76 62-118-32 0-63 18v-2q0-50 32-90t81-50q-15-4-37-4-10 0-27 2 13-43 50-69t82-27q-82-65-176-65-12 0-33 3 96-63 218-63 93 0 172 37t128 95 76 130 27 142v19z" horiz-adv-x="1000" />
<glyph glyph-name="glyph-5" unicode="&#xe805;" d="m500 788q207 0 354-147t146-353-146-354-354-147-354 147-146 354 146 353 354 147z m-146-750v354h-125v-354h125z m-62 416q37 0 60 21t23 52q-1 33-24 53t-59 20-60-21-24-52 23-52 60-21h1z m521-416v187q0 86-40 137t-106 51q-37 0-65-21t-39-55l-5 55h-124l4-84v-270h125v187q0 38 16 61t45 22q64 0 64-83v-187h125z" horiz-adv-x="1000" />
<glyph glyph-name="glyph-6" unicode="&#xe806;" d="m211 36h48q-38 41-38 79 0 26 14 53h-25q-78 0-134 41t-75 105q-1-9-1-26 0-150 82-276 62 24 129 24z m-116 340q9-72 55-125t100-54q54-2 87 48t23 122-55 123-101 53q-55 3-86-47t-23-120z m333-518q0 15-3 29-2 10-7 19t-11 17-13 15-17 15-19 13-23 16-24 16q-37 12-70 12-71 1-132-35 119-149 307-181 12 27 12 64z m72 930q207 0 354-147t146-353-146-354-354-147h-20q22 42 22 83 0 62-22 103t-78 81q-26 18-50 45t-24 44q0 23 10 39t44 42q80 62 80 149 0 57-24 103t-68 62h91l63 46h-284q-113 0-191-81 61 128 183 206t268 79z m250-375h125v62h-125v125h-62v-125h-125v-62h125v-125h62v125z" horiz-adv-x="1000" />
<glyph glyph-name="glyph-7" unicode="&#xe807;" d="m500 788q207 0 354-147t146-353-146-354-354-147-354 147-146 354 146 353 354 147z m208-813v108q-59-18-104-18-54 0-69 19t-14 79v166h167v146h-167v167h-104q-11-94-49-133t-118-66v-106h105v-216q0-94 44-141t143-47q46 0 88 11t60 21z" horiz-adv-x="1000" />
<glyph glyph-name="glyph-8" unicode="&#xe808;" d="m42 489l237-651q-126 63-203 183t-76 267q0 103 42 201z m622-674q-78-28-164-28-72 0-141 20l147 438z m130 636q41-71 41-138 0-39-37-161l-51-167-181 538 58 4q13 1 17 12t-2 21-19 9q-81-7-133-7l-132 7q-12 0-18-10t-2-20 17-12q25-3 53-4l78-213-110-329-182 542 58 4q13 1 17 12t-2 21-19 9q-81-7-133-7-19 0-30 1 70 104 180 164t238 61q193 0 336-130h-7q-36 0-60-27t-25-62q0-8 1-16t3-14 6-15 5-14 8-15 9-14 9-15 9-15z m206-163q0-137-68-252t-181-181l153 442q38 95 38 179 0 29-3 51 61-110 61-239z" horiz-adv-x="1000" />
<glyph glyph-name="glyph-9" unicode="&#xe809;" d="m500 788q207 0 354-147t146-353-146-354-354-147-354 147-146 354 146 353 354 147z m292-605v125q0 18-12 30t-30 12h-31q-13 0-22 12t-9 30q0 77-55 132t-133 55h-104q-78 0-133-55t-55-132v-209q0-78 55-133t133-54h208q78 0 133 55t55 132z m-188 42q18 0 30-12t12-30-12-29-30-12h-208q-17 0-30 12t-12 29 12 30 30 12h208z m-208 125q-17 0-30 12t-12 30 12 29 30 12h104q17 0 30-12t12-29-12-30-30-12h-104z" horiz-adv-x="1000" />
<glyph glyph-name="glyph-10" unicode="&#xe80a;" d="m333 246v104q0 74 51 131t124 57q75 0 127-62t53-168q0-110-50-173t-138-63q-71 0-119 54t-48 120z m667 42q0-208-146-354t-354-147q-86 0-167 29v277h8q66-97 180-97 128 0 200 90t71 222q0 129-69 217t-181 88q-143 0-212-117h-8l-9 104h-91l7-167v-566q-105 69-167 180t-62 241q0 207 146 353t354 147 354-147 146-353z" horiz-adv-x="1000" />
<glyph glyph-name="glyph-11" unicode="&#xe80b;" d="m500 788q207 0 354-147t146-353-146-354-354-147-354 147-146 354 146 353 354 147z m0-730q234 0 273 29t40 201-40 200-273 29-273-29-39-200 39-201 273-29z m-83 105v250l208-125z" horiz-adv-x="1000" />
<glyph glyph-name="glyph-12" unicode="&#xe80c;" d="m500 788q207 0 354-147t146-353-146-354-354-147-354 147-146 354 146 353 354 147z m-42-834q46 0 130 79t155 193 70 199q0 51-28 82t-71 31q-54 0-109-36t-75-110q43 18 69 1t26-50q0-40-47-110t-71-70q-32 0-61 180-2 8-4 33t-6 37-7 35-11 36-16 27-23 20-32 7q-37 0-88-40t-85-81l-33-39 26-28q27 21 44 26t25-1 14-25l83-271q37-125 125-125z" horiz-adv-x="1000" />
<glyph glyph-name="glyph-13" unicode="&#xe80d;" d="m500 788q207 0 354-147t146-353-146-354-354-147-354 147-146 354 146 353 354 147z m-208-667q68 0 117 48t49 119q0 68-49 117t-117 49q-70 0-118-49t-49-117q0-70 49-119t118-48z m416 0q69 0 118 48t49 119q0 68-49 117t-118 49q-69 0-118-49t-48-117q0-70 48-119t118-48z" horiz-adv-x="1000" />
<glyph glyph-name="glyph-14" unicode="&#xe80e;" d="m500 475q78 0 133-55t55-132-55-133-133-55q-79 0-133 54t-54 134q0 77 55 132t132 55z m464 0h-268q-81 83-196 83t-196-83h-268q57 139 183 226t281 87 281-87 183-226z m36-187q0-208-146-354t-354-147-354 147-146 354q0 53 10 104h240q-21-49-21-104 0-113 79-192t192-79 192 79 79 192q0 55-21 104h240q10-51 10-104z" horiz-adv-x="1000" />
<glyph glyph-name="glyph-15" unicode="&#xe80f;" d="m1000 288q0-208-146-354t-354-147q-74 0-142 21 37 58 51 107l34 138q14-26 49-44t74-19q119 0 194 97t76 246q0 115-89 201t-227 86q-86 0-156-29t-113-74-66-101-23-109q0-68 26-120t76-71q20-8 25 13 5 16 11 39 3 14-8 28-33 41-33 98 0 99 69 169t178 71q98 0 153-53t54-139q0-110-45-188t-114-77q-39 0-63 28t-15 68q6 23 17 61t19 67 8 49q0 32-18 54t-49 21q-41 0-69-37t-27-92q0-21 4-41t7-29l5-9q-56-232-65-273-13-50-8-115-134 59-217 183t-83 276q0 207 146 353t354 147 354-147 146-353z" horiz-adv-x="1000" />
<glyph glyph-name="glyph-16" unicode="&#xe810;" d="m487 450q-194-58-477-63 24 117 98 211t183 143q113-139 196-291z m-355-502q-132 144-132 340v23q311 4 522 70 20-39 44-96-25-7-38-11-239-85-396-326z m565-120q-94-41-197-41-175 0-310 108 160 251 404 320 67-177 103-387z m297 384q-15-105-73-194t-145-147q-36 195-98 361 150 22 316-20z m-425 265q-85 159-194 294 63 17 125 17 192 0 333-129-100-117-264-182z m431-187q-189 43-349 15-10 24-47 105 173 70 283 195 111-136 113-315z" horiz-adv-x="1000" />
<glyph glyph-name="glyph-17" unicode="&#xe811;" d="m704 330q29 0 48-18t20-45h-138q3 27 21 45t49 18z m0 0q29 0 48-18t20-45h-138q3 27 21 45t49 18z m-204 458q207 0 354-147t146-353-146-354-354-147-354 147-146 354 146 353 354 147z m113-292v-42h185v42h-185z m-255-417q83 0 120 37t37 92q0 37-17 62t-33 31l-16 6q52 27 52 87 0 52-35 81t-94 29h-205v-425h191z m275 134h221v20q0 78-39 121t-111 42q-67 0-110-41t-42-122q0-76 42-118t112-42q54 0 94 28t50 72h-81q-2-4-6-9t-19-16-36-10q-32 0-53 20t-22 55z m71 117q29 0 48-18t20-45h-138q3 27 21 45t49 18z m-349-64q70 0 70-53 0-60-71-60h-90v113h91z m62 118q0-48-63-48h-90v94h80q38 0 55-10t18-36z" horiz-adv-x="1000" />
<glyph glyph-name="glyph-18" unicode="&#xe812;" d="m500 788q207 0 354-147t146-353-146-354-354-147-354 147-146 354 146 353 354 147z m188-250v106q-32-27-122-34-39 26-91 26-71 0-120-48t-48-123q0-102 81-149-20-16-29-36t-4-46 28-51q-42-18-66-51t-25-72q0-63 58-105t140-41q83 0 140 41t58 105q0 60-56 101t-137 44q-25 19-29 39t14 50q70 3 116 50t45 121q0 40-14 73h61z m-292-480q0 22 26 39t68 16 67-16 26-39q0-23-26-38t-67-16-68 16-26 38z m79 495q26 0 43-23t17-61q0-39-18-62t-42-22q-27 0-44 23t-18 61 18 61 44 23z" horiz-adv-x="1000" />
<glyph glyph-name="glyph-19" unicode="&#xe813;" d="m500 788q206 0 353-147t147-353q0-173-106-308t-269-178v131q0 91-52 131 105 16 172 75t68 149q0 78-58 143 21 96-5 148-64-6-145-55-55 14-105 14t-105-14q-81 49-145 55-27-55-5-148-57-65-57-143 0-90 67-149t172-75q-26-20-40-57-21 0-43 5t-40 11-35 15-30 17-23 17-15 12l-4 4q-8 9-16 3-10-6-7-16 22-43 37-63 60-78 164-109v-101q-163 42-269 178t-106 308q0 207 146 353t354 147z" horiz-adv-x="1000" />
<glyph glyph-name="glyph-20" unicode="&#xe814;" d="m500 788q207 0 354-147t146-353-146-354-354-147-354 147-146 354 146 353 354 147z m286-410q21 94-30 147t-122 54h-280l-125-583h162l41 187h116q90 0 155 52t83 143z m-214 76q31 0 48-24t9-57q-9-35-36-60t-63-25h-76l37 166h81z" horiz-adv-x="1000" />
<glyph glyph-name="glyph-21" unicode="&#xe815;" d="m1000 288q0-208-146-354t-354-147-354 147-146 354q0 15 2 45 10-73 66-122t130-48q82 0 140 57t58 140-58 141-140 57q-103 0-162-84 57 140 182 227t282 87q117 0 220-51t174-140l-415-497-52 96q-44-59-111-91l142-172 520 499q22-72 22-144z" horiz-adv-x="1000" />
<glyph glyph-name="glyph-22" unicode="&#xe816;" d="m500 788q207 0 354-147t146-353-146-354-354-147-354 147-146 354 146 353 354 147z m156-842q77 0 131 55t54 130q0 59-32 104 4 27 4 53 0 129-92 221t-221 91q-25 0-52-3-45 32-104 32-77 0-131-54t-54-131q0-59 32-106-3-24-3-50 0-130 91-222t221-91q27 0 51 3 46-32 105-32z m21 265q0 89-139 118l-46 12q-21 4-31 7t-19 11-9 21q0 34 64 34 38 0 67-26t47-25q21 0 34 14t12 34q0 37-51 61t-118 24-115-31-50-93q0-51 29-77t86-40l64-16q26-6 36-9t19-11 9-22q0-17-18-29t-47-11q-28 0-48 10t-32 24-24 24-30 10q-44 0-44-46 0-41 54-70t129-30q69 0 120 36t51 96z" horiz-adv-x="1000" />
<glyph glyph-name="glyph-23" unicode="&#xe817;" d="m500 788q206 0 353-147t147-353q0-208-146-354t-354-147-354 147-146 354 146 353 354 147z m83-200q-41 12-93 12-133 0-228-91t-95-221 95-222 228-91 228 91 95 222q0 10-3 33 40 19 66 45t33 42 7 21q3 8-4 17-6 8-16 8-35 0-67 11t-52 20-54 34q-46 30-77 45v-245q0-71-57-119t-131-48q-51 0-88 31t-37 84q0 54 50 105t127 51q39 0 73-23v188z" horiz-adv-x="1000" />
<glyph glyph-name="glyph-24" unicode="&#xe818;" d="m585-206q-12 73-50 111t-95 38q-48 0-83-31t-53-85q93-40 196-40 43 0 85 7z m-85 994q206 0 353-147t147-353q0-140-72-258t-190-182q-27 108-108 170t-190 61q-88 0-160-43t-113-122q-78 70-122 168t-45 206q0 207 146 353t354 147z m240-675q7 10 4 22t-15 19q-195 121-480 56-13-3-19-14t-4-23 13-19 24-4q259 59 434-48 26-16 43 11z m60 134q9 13 5 28t-18 24q-114 71-267 89t-288-23q-16-5-23-18t-3-29 19-24 30-3q118 36 255 20t237-77q13-9 29-5t24 18z m6 141q16-9 34-4t28 20q11 17 5 36t-21 28q-88 52-209 77t-236 20-203-31q-19-6-27-22t-3-36 22-27 34-3q78 23 180 27t211-18 185-67z" horiz-adv-x="1000" />
<glyph glyph-name="glyph-25" unicode="&#xe819;" d="m500 788q206 0 353-147t147-353q0-208-146-354t-354-147-354 147-146 354 146 353 354 147z m188-709q187 0 187 119 0 48-23 75t-54 37-64 15-54 18-23 39q0 46 62 46 60 0 67-51l86 10q-11 109-149 109-68 0-110-30t-42-93q0-45 22-71t54-35 63-15 55-19 22-39q0-48-89-48-71 0-102 37t-54 113q-33 110-77 155t-147 45q-85 0-139-52t-54-163q0-109 53-155t135-47q41 0 77 12t51 23l15 10-28 76q-4-6-14-15t-39-24-62-15q-40 0-69 38t-29 104q0 64 29 102t77 38q15 0 28-3t24-8 19-13 16-18 12-20 11-25 10-27 10-30 10-30q8-24 12-35t16-36 27-40 38-31 58-25 76-8z" horiz-adv-x="1000" />
<glyph glyph-name="glyph-26" unicode="&#xe81a;" d="m500 788q206 0 353-147t147-353q0-208-146-354t-354-147-354 147-146 354 146 353 354 147z m292-537q0 31-25 49 25 19 25 50 0 26-19 44t-44 19h-133q-7 0-10 5-5 7-1 12l2 7q2 7 5 18t5 24 5 29 2 30q0 41-22 75-19 29-46 29-15 0-26-12t-10-28q0-52-27-98t-62-74-69-43-50-16h-42v-292h83l124-46q35-16 74-16h131q23 0 39 16t17 39q0 13-6 25 21 5 34 22t13 39q0 18-10 33 43 14 43 60z" horiz-adv-x="1000" />
<glyph glyph-name="glyph-27" unicode="&#xe81b;" d="m0 788h1000v-1001h-1000v1001z m787-125h-574l287-287z m-662-88v-574l287 287z m88-663h574l-287 288z m662 89v574l-287-287z" horiz-adv-x="1000" />
<glyph glyph-name="glyph-28" unicode="&#xe81c;" d="m0 788h1000v-1001h-1000v1001z m787-125h-574l287-287z m-662-88v-574l287 287z m88-663h574l-287 288z m662 89v574l-287-287z" horiz-adv-x="1000" />
</font>
</defs>
</svg>
